# xmcd CD database file
#
# Track frame offsets:
#	150
#	19527
#	38036
#	51504
#	67033
#	81857
#	100213
#	119060
#	141803
#	155123
#	172758
#	182995
#	193341
#	205966
#	218746
#	229494
#
# Disc length: 3118 seconds
#
# Revision: 0
# Processed by: cddbd v1.5.2PL0 Copyright (c) Steve Scherf et al.
# Submitted via: CDex 1.51
#
DISCID=f20c2c10
DTITLE=EMI MEYER - Suitcase of Stones
DYEAR=2011
DGENRE=Jazz
TTITLE0=Master Piece
TTITLE1=To The World
TTITLE2=Happy Song
TTITLE3=The Return
TTITLE4=Christopher
TTITLE5=Suitcase of Stones
TTITLE6=If We Were Trees
TTITLE7=Luz
TTITLE8=Yesterday's Rain
TTITLE9=Jamaica Song (Ska Ver.) - Emi Meyer with Cool Wise Man
TTITLE10=A Summer Song (English Ver.) - Emi Meyer and The Shanghai Restoration Project
TTITLE11=A Summer Song(Japanese Ver.) - Emi Meyer and The Shanghai Restoration Project
TTITLE12=A Winter Song (English Ver.) - Emi Meyer and The Shanghai Restoration Project
TTITLE13=A Winter Song (Japanese Ver.) - Emi Meyer and The Shanghai Restoration Project
TTITLE14=Dor-emi-fa (Aohata55 Jam CM song)
TTITLE15=Friendly Face (Aohata55 Jam CM song)
EXTD=YEAR: 2011
EXTT0=
EXTT1=
EXTT2=
EXTT3=
EXTT4=
EXTT5=
EXTT6=
EXTT7=
EXTT8=
EXTT9=
EXTT10=
EXTT11=
EXTT12=
EXTT13=
EXTT14=
EXTT15=
PLAYORDER=
